<?xml version="1.0" ?><svg id="katman_1" style="enable-background:new 0 0 512 512;" version="1.1" viewBox="0 0 512 512" xml:space="preserve" xmlns="http://www.w3.org/2000/svg" xmlns:xlink="http://www.w3.org/1999/xlink"><style type="text/css">
	.st0{fill:#905AA1;}
	.st1{fill:#7F4997;}
	.st2{fill:#FFFFFF;}
</style><g><g><circle class="st0" cx="256" cy="256" r="250"/></g><path class="st1" d="M506,256c0-3.7-0.1-7.4-0.3-11c-0.2-0.3-0.4-0.5-0.6-0.7c-33.9-33.8-67.7-67.6-101.5-101.5   c-0.5-0.5-1-1-1.5-1.5c-3.5-3.4-7.7-5.1-12.5-5.1c-66.8,0-133.6,0-200.4,0c-1.7,0-3.3,0.2-5,0.7c-7.5,2.1-12.5,8.7-12.5,16.5   c0,15,0,29.9,0,44.9c0,2.9,0.9,5.2,3,7.3c5.1,5,10.2,10.2,15.3,15.3c0.5,0.5,1.3,1,1.6,2.1c-0.9,0-1.6,0-2.4,0   c-21.6,0-43.2,0-64.8,0c-2.2,0-4.3,0.2-6.4,0.9c-5.9,2-11.3,8.2-11.3,16.5c0.1,27,0.1,53.9,0,80.9c0,5.5,1.9,10.1,5.8,13.9   c4.9,4.8,9.7,9.7,14.6,14.6c0.9,0.9,1.3,1.8,1.3,3.1c-0.1,5,0.1,10.1-0.1,15.1c-0.1,3.4,1,5.9,3.4,8.3c26.6,26.5,53.1,53,79.6,79.6   c16.5,16.5,32.9,32.9,49.4,49.4c0.3,0.3,0.6,0.6,1,0.8C397.2,502.9,506,392.1,506,256z"/><g><path class="st2" d="M389.1,135.7H187.9c-9.3,0-16.9,7.6-16.9,16.9V199c0,3.9,3.2,7.1,7.1,7.1c3.9,0,7.1-3.2,7.1-7.1v-46.3    c0-1.5,1.2-2.7,2.7-2.7h201.2c1.5,0,2.7,1.2,2.7,2.7v120.7c0,1.5-1.2,2.7-2.7,2.7H369c-3.7,0-6.7,2.8-7,6.4c0,0.2,0,35.6,0,35.6    L322,278.2c-1.3-1.3-2.9-1.9-4.5-2c-0.1,0-13.4,0-13.4,0c-3.9,0-7.1,3.2-7.1,7.1c0,3.9,3.2,7.1,7.1,7.1h10l50,50    c1.4,1.4,3.2,2.1,5,2.1c0.9,0,1.8-0.2,2.7-0.5c2.6-1.1,4.4-3.7,4.4-6.5v-44.9h13c9.3,0,16.9-7.6,16.9-16.9V152.6    C406,143.3,398.4,135.7,389.1,135.7z"/><path class="st2" d="M263.8,222.3H122.9c-9.3,0-16.9,7.6-16.9,16.9v82.4c0,9.3,7.6,16.9,16.9,16.9h4.9v30.7c0,2.9,1.7,5.4,4.4,6.5    c0.9,0.4,1.8,0.5,2.7,0.5c1.8,0,3.7-0.7,5-2.1l35.7-35.7h88.2c9.3,0,16.9-7.6,16.9-16.9v-82.4    C280.7,229.9,273.1,222.3,263.8,222.3z M266.5,321.6c0,1.5-1.2,2.7-2.7,2.7h-91.1c-1.8,0-3.4,0.7-4.7,1.8    c-0.1,0.1-0.2,0.2-0.3,0.3c0,0-0.1,0.1-0.1,0.1l-25.7,25.7c0,0,0-21.1,0-21.3c-0.3-3.7-3.3-6.5-7-6.5h-11.9    c-1.5,0-2.7-1.2-2.7-2.7v-82.4c0-1.5,1.2-2.7,2.7-2.7h140.9c1.5,0,2.7,1.2,2.7,2.7V321.6z"/><ellipse class="st2" cx="193.3" cy="280.4" rx="7.1" ry="7.1" transform="matrix(0.9239 -0.3827 0.3827 0.9239 -92.5811 95.3253)"/><path class="st2" d="M352.9,182.5H224.1c-3.9,0-7.1,3.2-7.1,7.1c0,3.9,3.2,7.1,7.1,7.1h128.8c3.9,0,7.1-3.2,7.1-7.1    C360,185.7,356.8,182.5,352.9,182.5z"/><path class="st2" d="M352.9,229.3H304c-3.9,0-7.1,3.2-7.1,7.1c0,3.9,3.2,7.1,7.1,7.1h48.9c3.9,0,7.1-3.2,7.1-7.1    C360,232.5,356.8,229.3,352.9,229.3z"/><circle class="st2" cx="226.2" cy="280.4" r="7.1"/><ellipse class="st2" cx="160.4" cy="280.4" rx="7.1" ry="7.1" transform="matrix(0.9239 -0.3827 0.3827 0.9239 -95.084 82.7427)"/></g></g></svg>